<mxfile host="Electron" agent="Mozilla/5.0 (Windows NT 10.0; Win64; x64) AppleWebKit/537.36 (KHTML, like Gecko) draw.io/28.0.4 Chrome/138.0.7204.97 Electron/37.2.1 Safari/537.36" version="28.0.4" pages="2">
  <diagram name="DFD AS IS" id="cqdwI2wl8IUv9r3W4rCr">
    <mxGraphModel dx="1489" dy="1043" grid="1" gridSize="10" guides="1" tooltips="1" connect="1" arrows="1" fold="1" page="1" pageScale="1" pageWidth="827" pageHeight="1169" math="0" shadow="0">
      <root>
        <mxCell id="0" />
        <mxCell id="1" parent="0" />
        <mxCell id="WRbi1omIE0z12hOzuWf4-37" style="edgeStyle=orthogonalEdgeStyle;rounded=0;orthogonalLoop=1;jettySize=auto;html=1;entryX=0;entryY=0.5;entryDx=0;entryDy=0;" parent="1" source="WRbi1omIE0z12hOzuWf4-1" target="WRbi1omIE0z12hOzuWf4-27" edge="1">
          <mxGeometry relative="1" as="geometry" />
        </mxCell>
        <mxCell id="WRbi1omIE0z12hOzuWf4-38" style="edgeStyle=orthogonalEdgeStyle;rounded=0;orthogonalLoop=1;jettySize=auto;html=1;entryX=0;entryY=0.5;entryDx=0;entryDy=0;" parent="1" source="WRbi1omIE0z12hOzuWf4-1" target="WRbi1omIE0z12hOzuWf4-14" edge="1">
          <mxGeometry relative="1" as="geometry" />
        </mxCell>
        <mxCell id="WRbi1omIE0z12hOzuWf4-39" style="edgeStyle=orthogonalEdgeStyle;rounded=0;orthogonalLoop=1;jettySize=auto;html=1;entryX=0;entryY=0.5;entryDx=0;entryDy=0;" parent="1" source="WRbi1omIE0z12hOzuWf4-1" target="WRbi1omIE0z12hOzuWf4-15" edge="1">
          <mxGeometry relative="1" as="geometry" />
        </mxCell>
        <mxCell id="WRbi1omIE0z12hOzuWf4-1" value="Администратор" style="sketch=0;outlineConnect=0;fontColor=#232F3E;gradientColor=none;fillColor=#232F3D;strokeColor=none;dashed=0;verticalLabelPosition=bottom;verticalAlign=top;align=center;html=1;fontSize=12;fontStyle=0;aspect=fixed;pointerEvents=1;shape=mxgraph.aws4.user;" parent="1" vertex="1">
          <mxGeometry x="42" y="679" width="78" height="78" as="geometry" />
        </mxCell>
        <mxCell id="WRbi1omIE0z12hOzuWf4-36" value="" style="edgeStyle=orthogonalEdgeStyle;rounded=0;orthogonalLoop=1;jettySize=auto;html=1;" parent="1" source="WRbi1omIE0z12hOzuWf4-2" target="WRbi1omIE0z12hOzuWf4-16" edge="1">
          <mxGeometry relative="1" as="geometry" />
        </mxCell>
        <mxCell id="KKHVuGexLqHL6Fe9hW5Y-11" value="" style="edgeStyle=orthogonalEdgeStyle;rounded=0;orthogonalLoop=1;jettySize=auto;html=1;" parent="1" source="WRbi1omIE0z12hOzuWf4-2" target="KKHVuGexLqHL6Fe9hW5Y-8" edge="1">
          <mxGeometry relative="1" as="geometry" />
        </mxCell>
        <mxCell id="WRbi1omIE0z12hOzuWf4-2" value="Медицинский&lt;div&gt;специалист&lt;/div&gt;" style="sketch=0;outlineConnect=0;fontColor=#232F3E;gradientColor=none;fillColor=#232F3D;strokeColor=none;dashed=0;verticalLabelPosition=bottom;verticalAlign=top;align=center;html=1;fontSize=12;fontStyle=0;aspect=fixed;pointerEvents=1;shape=mxgraph.aws4.user;" parent="1" vertex="1">
          <mxGeometry x="453" y="1054" width="78" height="78" as="geometry" />
        </mxCell>
        <mxCell id="KKHVuGexLqHL6Fe9hW5Y-1" value="" style="edgeStyle=orthogonalEdgeStyle;rounded=0;orthogonalLoop=1;jettySize=auto;html=1;" parent="1" source="WRbi1omIE0z12hOzuWf4-4" target="WRbi1omIE0z12hOzuWf4-18" edge="1">
          <mxGeometry relative="1" as="geometry" />
        </mxCell>
        <mxCell id="WRbi1omIE0z12hOzuWf4-4" value="Пациент" style="sketch=0;outlineConnect=0;fontColor=#232F3E;gradientColor=none;fillColor=#232F3D;strokeColor=none;dashed=0;verticalLabelPosition=bottom;verticalAlign=top;align=center;html=1;fontSize=12;fontStyle=0;aspect=fixed;pointerEvents=1;shape=mxgraph.aws4.user;" parent="1" vertex="1">
          <mxGeometry x="42" y="221" width="78" height="78" as="geometry" />
        </mxCell>
        <mxCell id="WRbi1omIE0z12hOzuWf4-14" value="Регистрация файла с данными пациента" style="shape=process;whiteSpace=wrap;html=1;backgroundOutline=1;fillColor=#fff2cc;strokeColor=#d6b656;" parent="1" vertex="1">
          <mxGeometry x="222" y="688" width="120" height="60" as="geometry" />
        </mxCell>
        <mxCell id="WRbi1omIE0z12hOzuWf4-15" value="Запись пациента к специалисту" style="shape=process;whiteSpace=wrap;html=1;backgroundOutline=1;fillColor=#fff2cc;strokeColor=#d6b656;" parent="1" vertex="1">
          <mxGeometry x="222" y="788" width="120" height="60" as="geometry" />
        </mxCell>
        <mxCell id="WRbi1omIE0z12hOzuWf4-16" value="Просмотр и редактирование журнала доктора" style="shape=process;whiteSpace=wrap;html=1;backgroundOutline=1;fillColor=#fff2cc;strokeColor=#d6b656;" parent="1" vertex="1">
          <mxGeometry x="432" y="924" width="120" height="60" as="geometry" />
        </mxCell>
        <mxCell id="KKHVuGexLqHL6Fe9hW5Y-2" value="" style="edgeStyle=orthogonalEdgeStyle;rounded=0;orthogonalLoop=1;jettySize=auto;html=1;" parent="1" source="WRbi1omIE0z12hOzuWf4-18" target="WRbi1omIE0z12hOzuWf4-41" edge="1">
          <mxGeometry relative="1" as="geometry" />
        </mxCell>
        <mxCell id="WRbi1omIE0z12hOzuWf4-18" value="&lt;div style=&quot;text-align: left;&quot;&gt;&lt;span style=&quot;text-wrap-mode: nowrap; background-color: transparent; color: light-dark(rgb(0, 0, 0), rgb(255, 255, 255));&quot;&gt;Данные пациента:&lt;/span&gt;&lt;/div&gt;&lt;div style=&quot;text-align: left; text-wrap-mode: nowrap;&quot;&gt;- ФИО&lt;/div&gt;&lt;div style=&quot;text-align: left; text-wrap-mode: nowrap;&quot;&gt;- Дата рождения&lt;/div&gt;&lt;div style=&quot;text-align: left; text-wrap-mode: nowrap;&quot;&gt;- Телефон&lt;/div&gt;&lt;div style=&quot;text-align: left; text-wrap-mode: nowrap;&quot;&gt;- Электронная почта&lt;/div&gt;&lt;div style=&quot;text-align: left; text-wrap-mode: nowrap;&quot;&gt;&lt;br&gt;&lt;/div&gt;&lt;div style=&quot;text-align: left; text-wrap-mode: nowrap;&quot;&gt;Расширенные данные пациента:&lt;/div&gt;&lt;div style=&quot;text-align: left; text-wrap-mode: nowrap;&quot;&gt;- Адрес прописки&lt;/div&gt;&lt;div style=&quot;text-align: left; text-wrap-mode: nowrap;&quot;&gt;- Место учебы или работы&lt;/div&gt;&lt;div style=&quot;text-align: left; text-wrap-mode: nowrap;&quot;&gt;- Хронические заболевания&lt;/div&gt;" style="html=1;dashed=0;whiteSpace=wrap;fontSize=9;fillColor=#dae8fc;strokeColor=#6c8ebf;" parent="1" vertex="1">
          <mxGeometry x="6" y="344" width="150" height="124" as="geometry" />
        </mxCell>
        <mxCell id="WRbi1omIE0z12hOzuWf4-24" value="Файловый&lt;div&gt;сервер&lt;/div&gt;" style="sketch=0;pointerEvents=1;shadow=0;dashed=0;html=1;strokeColor=none;labelPosition=center;verticalLabelPosition=bottom;verticalAlign=top;align=center;fillColor=#515151;shape=mxgraph.mscae.system_center.distribution_point" parent="1" vertex="1">
          <mxGeometry x="671" y="676" width="70" height="70" as="geometry" />
        </mxCell>
        <mxCell id="WRbi1omIE0z12hOzuWf4-25" value="Excel-файл" style="whiteSpace=wrap;html=1;shape=mxgraph.basic.document" parent="1" vertex="1">
          <mxGeometry x="462" y="587.5" width="60" height="71" as="geometry" />
        </mxCell>
        <mxCell id="WRbi1omIE0z12hOzuWf4-26" value="" style="edgeStyle=orthogonalEdgeStyle;rounded=0;orthogonalLoop=1;jettySize=auto;html=1;" parent="1" source="WRbi1omIE0z12hOzuWf4-27" target="WRbi1omIE0z12hOzuWf4-25" edge="1">
          <mxGeometry relative="1" as="geometry" />
        </mxCell>
        <mxCell id="WRbi1omIE0z12hOzuWf4-27" value="Регистрация пациента в системе" style="shape=process;whiteSpace=wrap;html=1;backgroundOutline=1;fillColor=#fff2cc;strokeColor=#d6b656;" parent="1" vertex="1">
          <mxGeometry x="222" y="593" width="120" height="60" as="geometry" />
        </mxCell>
        <mxCell id="WRbi1omIE0z12hOzuWf4-28" style="edgeStyle=orthogonalEdgeStyle;rounded=0;orthogonalLoop=1;jettySize=auto;html=1;exitX=1;exitY=0.5;exitDx=0;exitDy=0;exitPerimeter=0;entryX=0;entryY=0.5;entryDx=0;entryDy=0;entryPerimeter=0;" parent="1" source="WRbi1omIE0z12hOzuWf4-25" target="WRbi1omIE0z12hOzuWf4-24" edge="1">
          <mxGeometry relative="1" as="geometry">
            <Array as="points">
              <mxPoint x="631" y="623" />
              <mxPoint x="631" y="711" />
            </Array>
          </mxGeometry>
        </mxCell>
        <mxCell id="WRbi1omIE0z12hOzuWf4-29" value="Excel-файл" style="whiteSpace=wrap;html=1;shape=mxgraph.basic.document" parent="1" vertex="1">
          <mxGeometry x="462" y="682.5" width="60" height="71" as="geometry" />
        </mxCell>
        <mxCell id="WRbi1omIE0z12hOzuWf4-30" value="Excel-файл" style="whiteSpace=wrap;html=1;shape=mxgraph.basic.document" parent="1" vertex="1">
          <mxGeometry x="462" y="782.5" width="60" height="71" as="geometry" />
        </mxCell>
        <mxCell id="WRbi1omIE0z12hOzuWf4-31" style="edgeStyle=orthogonalEdgeStyle;rounded=0;orthogonalLoop=1;jettySize=auto;html=1;exitX=1;exitY=0.5;exitDx=0;exitDy=0;entryX=0;entryY=0.5;entryDx=0;entryDy=0;entryPerimeter=0;" parent="1" source="WRbi1omIE0z12hOzuWf4-14" target="WRbi1omIE0z12hOzuWf4-29" edge="1">
          <mxGeometry relative="1" as="geometry" />
        </mxCell>
        <mxCell id="WRbi1omIE0z12hOzuWf4-32" style="edgeStyle=orthogonalEdgeStyle;rounded=0;orthogonalLoop=1;jettySize=auto;html=1;exitX=1;exitY=0.5;exitDx=0;exitDy=0;entryX=0;entryY=0.5;entryDx=0;entryDy=0;entryPerimeter=0;" parent="1" source="WRbi1omIE0z12hOzuWf4-15" target="WRbi1omIE0z12hOzuWf4-30" edge="1">
          <mxGeometry relative="1" as="geometry" />
        </mxCell>
        <mxCell id="WRbi1omIE0z12hOzuWf4-33" style="edgeStyle=orthogonalEdgeStyle;rounded=0;orthogonalLoop=1;jettySize=auto;html=1;exitX=1;exitY=0.5;exitDx=0;exitDy=0;exitPerimeter=0;entryX=0.029;entryY=0.6;entryDx=0;entryDy=0;entryPerimeter=0;" parent="1" source="WRbi1omIE0z12hOzuWf4-29" target="WRbi1omIE0z12hOzuWf4-24" edge="1">
          <mxGeometry relative="1" as="geometry" />
        </mxCell>
        <mxCell id="WRbi1omIE0z12hOzuWf4-34" style="edgeStyle=orthogonalEdgeStyle;rounded=0;orthogonalLoop=1;jettySize=auto;html=1;exitX=1;exitY=0.5;exitDx=0;exitDy=0;exitPerimeter=0;entryX=-0.006;entryY=0.743;entryDx=0;entryDy=0;entryPerimeter=0;" parent="1" source="WRbi1omIE0z12hOzuWf4-30" target="WRbi1omIE0z12hOzuWf4-24" edge="1">
          <mxGeometry relative="1" as="geometry">
            <Array as="points">
              <mxPoint x="631" y="818" />
              <mxPoint x="631" y="728" />
            </Array>
          </mxGeometry>
        </mxCell>
        <mxCell id="WRbi1omIE0z12hOzuWf4-35" style="edgeStyle=orthogonalEdgeStyle;rounded=0;orthogonalLoop=1;jettySize=auto;html=1;exitX=0.5;exitY=0;exitDx=0;exitDy=0;entryX=0.5;entryY=1;entryDx=0;entryDy=0;entryPerimeter=0;" parent="1" source="WRbi1omIE0z12hOzuWf4-16" target="WRbi1omIE0z12hOzuWf4-30" edge="1">
          <mxGeometry relative="1" as="geometry" />
        </mxCell>
        <mxCell id="WRbi1omIE0z12hOzuWf4-43" value="" style="edgeStyle=orthogonalEdgeStyle;rounded=0;orthogonalLoop=1;jettySize=auto;html=1;" parent="1" source="WRbi1omIE0z12hOzuWf4-41" target="WRbi1omIE0z12hOzuWf4-1" edge="1">
          <mxGeometry relative="1" as="geometry" />
        </mxCell>
        <mxCell id="WRbi1omIE0z12hOzuWf4-41" value="Предоставление&lt;div&gt;данных&lt;/div&gt;" style="shape=process;whiteSpace=wrap;html=1;backgroundOutline=1;fillColor=#fff2cc;strokeColor=#d6b656;" parent="1" vertex="1">
          <mxGeometry x="21" y="518" width="120" height="60" as="geometry" />
        </mxCell>
        <mxCell id="KKHVuGexLqHL6Fe9hW5Y-6" style="edgeStyle=orthogonalEdgeStyle;rounded=0;orthogonalLoop=1;jettySize=auto;html=1;exitX=0.5;exitY=1;exitDx=0;exitDy=0;entryX=0.5;entryY=0;entryDx=0;entryDy=0;" parent="1" source="ZQVfTqN15WdZtSxtsL7D-1" target="KKHVuGexLqHL6Fe9hW5Y-5" edge="1">
          <mxGeometry relative="1" as="geometry" />
        </mxCell>
        <mxCell id="ZQVfTqN15WdZtSxtsL7D-1" value="Передача результатов&lt;div&gt;в клинику&lt;/div&gt;" style="shape=process;whiteSpace=wrap;html=1;backgroundOutline=1;fillColor=#fff2cc;strokeColor=#d6b656;" parent="1" vertex="1">
          <mxGeometry x="432" y="264" width="120" height="60" as="geometry" />
        </mxCell>
        <mxCell id="ZQVfTqN15WdZtSxtsL7D-2" value="Excel-файл" style="whiteSpace=wrap;html=1;shape=mxgraph.basic.document" parent="1" vertex="1">
          <mxGeometry x="667" y="490.5" width="60" height="71" as="geometry" />
        </mxCell>
        <mxCell id="ZQVfTqN15WdZtSxtsL7D-3" style="edgeStyle=orthogonalEdgeStyle;rounded=0;orthogonalLoop=1;jettySize=auto;html=1;exitX=0.5;exitY=1;exitDx=0;exitDy=0;exitPerimeter=0;entryX=0.371;entryY=0.069;entryDx=0;entryDy=0;entryPerimeter=0;" parent="1" source="ZQVfTqN15WdZtSxtsL7D-2" target="WRbi1omIE0z12hOzuWf4-24" edge="1">
          <mxGeometry relative="1" as="geometry" />
        </mxCell>
        <mxCell id="ZQVfTqN15WdZtSxtsL7D-6" style="edgeStyle=orthogonalEdgeStyle;rounded=0;orthogonalLoop=1;jettySize=auto;html=1;entryX=0.5;entryY=0;entryDx=0;entryDy=0;" parent="1" source="ZQVfTqN15WdZtSxtsL7D-7" target="ZQVfTqN15WdZtSxtsL7D-1" edge="1">
          <mxGeometry relative="1" as="geometry" />
        </mxCell>
        <mxCell id="ZQVfTqN15WdZtSxtsL7D-5" value="Медицинские лаборатории" style="sketch=0;pointerEvents=1;shadow=0;dashed=0;html=1;strokeColor=none;labelPosition=center;verticalLabelPosition=bottom;verticalAlign=top;align=center;fillColor=#515151;shape=mxgraph.mscae.system_center.admin_console" parent="1" vertex="1">
          <mxGeometry x="438" y="34" width="108" height="77" as="geometry" />
        </mxCell>
        <mxCell id="ZQVfTqN15WdZtSxtsL7D-10" value="Учёт анализов" style="shape=process;whiteSpace=wrap;html=1;backgroundOutline=1;fillColor=#fff2cc;strokeColor=#d6b656;" parent="1" vertex="1">
          <mxGeometry x="432" y="496" width="120" height="60" as="geometry" />
        </mxCell>
        <mxCell id="ZQVfTqN15WdZtSxtsL7D-11" style="edgeStyle=orthogonalEdgeStyle;rounded=0;orthogonalLoop=1;jettySize=auto;html=1;exitX=1;exitY=0.5;exitDx=0;exitDy=0;entryX=0;entryY=0.5;entryDx=0;entryDy=0;entryPerimeter=0;" parent="1" source="ZQVfTqN15WdZtSxtsL7D-10" target="ZQVfTqN15WdZtSxtsL7D-2" edge="1">
          <mxGeometry relative="1" as="geometry" />
        </mxCell>
        <mxCell id="KKHVuGexLqHL6Fe9hW5Y-4" value="" style="edgeStyle=orthogonalEdgeStyle;rounded=0;orthogonalLoop=1;jettySize=auto;html=1;entryX=0.5;entryY=0;entryDx=0;entryDy=0;" parent="1" source="ZQVfTqN15WdZtSxtsL7D-5" target="ZQVfTqN15WdZtSxtsL7D-7" edge="1">
          <mxGeometry relative="1" as="geometry">
            <mxPoint x="492" y="154" as="sourcePoint" />
            <mxPoint x="492" y="309" as="targetPoint" />
          </mxGeometry>
        </mxCell>
        <mxCell id="ZQVfTqN15WdZtSxtsL7D-7" value="&lt;div style=&quot;text-align: left;&quot;&gt;&lt;span style=&quot;text-wrap-mode: nowrap; background-color: transparent; color: light-dark(rgb(0, 0, 0), rgb(255, 255, 255));&quot;&gt;Результаты&lt;/span&gt;&lt;/div&gt;&lt;div style=&quot;text-align: left;&quot;&gt;&lt;span style=&quot;text-wrap-mode: nowrap; background-color: transparent; color: light-dark(rgb(0, 0, 0), rgb(255, 255, 255));&quot;&gt;по анализам&lt;/span&gt;&lt;/div&gt;" style="html=1;dashed=0;whiteSpace=wrap;fontSize=9;fillColor=#dae8fc;strokeColor=#6c8ebf;" parent="1" vertex="1">
          <mxGeometry x="442" y="174" width="100" height="40" as="geometry" />
        </mxCell>
        <mxCell id="KKHVuGexLqHL6Fe9hW5Y-7" style="edgeStyle=orthogonalEdgeStyle;rounded=0;orthogonalLoop=1;jettySize=auto;html=1;exitX=0.5;exitY=1;exitDx=0;exitDy=0;entryX=0.5;entryY=0;entryDx=0;entryDy=0;" parent="1" source="KKHVuGexLqHL6Fe9hW5Y-5" target="ZQVfTqN15WdZtSxtsL7D-10" edge="1">
          <mxGeometry relative="1" as="geometry" />
        </mxCell>
        <mxCell id="KKHVuGexLqHL6Fe9hW5Y-5" value="Получение&lt;div&gt;результатов&lt;/div&gt;&lt;div&gt;анализов&lt;/div&gt;" style="shape=process;whiteSpace=wrap;html=1;backgroundOutline=1;fillColor=#fff2cc;strokeColor=#d6b656;" parent="1" vertex="1">
          <mxGeometry x="432" y="376" width="120" height="60" as="geometry" />
        </mxCell>
        <mxCell id="KKHVuGexLqHL6Fe9hW5Y-12" style="edgeStyle=orthogonalEdgeStyle;rounded=0;orthogonalLoop=1;jettySize=auto;html=1;exitX=1;exitY=0.5;exitDx=0;exitDy=0;entryX=0;entryY=0.5;entryDx=0;entryDy=0;" parent="1" source="KKHVuGexLqHL6Fe9hW5Y-8" target="KKHVuGexLqHL6Fe9hW5Y-10" edge="1">
          <mxGeometry relative="1" as="geometry" />
        </mxCell>
        <mxCell id="KKHVuGexLqHL6Fe9hW5Y-8" value="&lt;div style=&quot;text-align: left;&quot;&gt;&lt;span style=&quot;text-wrap-mode: nowrap;&quot;&gt;Запрос&lt;/span&gt;&lt;/div&gt;&lt;div style=&quot;text-align: left;&quot;&gt;&lt;span style=&quot;text-wrap-mode: nowrap;&quot;&gt;на проведение&lt;/span&gt;&lt;/div&gt;&lt;div style=&quot;text-align: left;&quot;&gt;&lt;span style=&quot;text-wrap-mode: nowrap;&quot;&gt;анализов&amp;nbsp;&lt;/span&gt;&lt;/div&gt;" style="html=1;dashed=0;whiteSpace=wrap;fontSize=9;fillColor=#dae8fc;strokeColor=#6c8ebf;" parent="1" vertex="1">
          <mxGeometry x="567" y="1073" width="90" height="41" as="geometry" />
        </mxCell>
        <mxCell id="KKHVuGexLqHL6Fe9hW5Y-10" value="Передача запроса и анализов" style="shape=process;whiteSpace=wrap;html=1;backgroundOutline=1;fillColor=#fff2cc;strokeColor=#d6b656;" parent="1" vertex="1">
          <mxGeometry x="707" y="1063" width="120" height="60" as="geometry" />
        </mxCell>
        <mxCell id="KKHVuGexLqHL6Fe9hW5Y-13" style="edgeStyle=orthogonalEdgeStyle;rounded=0;orthogonalLoop=1;jettySize=auto;html=1;exitX=1;exitY=0.5;exitDx=0;exitDy=0;entryX=0.5;entryY=0;entryDx=0;entryDy=0;entryPerimeter=0;" parent="1" source="KKHVuGexLqHL6Fe9hW5Y-10" target="ZQVfTqN15WdZtSxtsL7D-5" edge="1">
          <mxGeometry relative="1" as="geometry" />
        </mxCell>
      </root>
    </mxGraphModel>
  </diagram>
  <diagram id="gCr1uKe6y9Z0VbcKOjin" name="DFD Protected">
    <mxGraphModel dx="1042" dy="730" grid="1" gridSize="10" guides="1" tooltips="1" connect="1" arrows="1" fold="1" page="1" pageScale="1" pageWidth="827" pageHeight="1169" math="0" shadow="0">
      <root>
        <mxCell id="0" />
        <mxCell id="1" parent="0" />
        <mxCell id="sNzU4l0RxBE-IgcGBJiX-1" style="edgeStyle=orthogonalEdgeStyle;rounded=0;orthogonalLoop=1;jettySize=auto;html=1;entryX=0;entryY=0.5;entryDx=0;entryDy=0;" parent="1" source="sNzU4l0RxBE-IgcGBJiX-5" target="sNzU4l0RxBE-IgcGBJiX-21" edge="1">
          <mxGeometry relative="1" as="geometry" />
        </mxCell>
        <mxCell id="sNzU4l0RxBE-IgcGBJiX-2" style="edgeStyle=orthogonalEdgeStyle;rounded=0;orthogonalLoop=1;jettySize=auto;html=1;entryX=0;entryY=0.5;entryDx=0;entryDy=0;" parent="1" source="sNzU4l0RxBE-IgcGBJiX-5" target="sNzU4l0RxBE-IgcGBJiX-12" edge="1">
          <mxGeometry relative="1" as="geometry" />
        </mxCell>
        <mxCell id="sNzU4l0RxBE-IgcGBJiX-3" style="edgeStyle=orthogonalEdgeStyle;rounded=0;orthogonalLoop=1;jettySize=auto;html=1;entryX=0;entryY=0.5;entryDx=0;entryDy=0;" parent="1" source="sNzU4l0RxBE-IgcGBJiX-5" target="sNzU4l0RxBE-IgcGBJiX-13" edge="1">
          <mxGeometry relative="1" as="geometry" />
        </mxCell>
        <mxCell id="sNzU4l0RxBE-IgcGBJiX-4" style="edgeStyle=orthogonalEdgeStyle;rounded=0;orthogonalLoop=1;jettySize=auto;html=1;entryX=0.25;entryY=0;entryDx=0;entryDy=0;" parent="1" source="sNzU4l0RxBE-IgcGBJiX-5" target="sNzU4l0RxBE-IgcGBJiX-48" edge="1">
          <mxGeometry relative="1" as="geometry" />
        </mxCell>
        <mxCell id="sNzU4l0RxBE-IgcGBJiX-5" value="Администратор" style="sketch=0;outlineConnect=0;fontColor=#232F3E;gradientColor=none;fillColor=#232F3D;strokeColor=none;dashed=0;verticalLabelPosition=bottom;verticalAlign=top;align=center;html=1;fontSize=12;fontStyle=0;aspect=fixed;pointerEvents=1;shape=mxgraph.aws4.user;" parent="1" vertex="1">
          <mxGeometry x="56" y="696" width="78" height="78" as="geometry" />
        </mxCell>
        <mxCell id="sNzU4l0RxBE-IgcGBJiX-6" value="" style="edgeStyle=orthogonalEdgeStyle;rounded=0;orthogonalLoop=1;jettySize=auto;html=1;" parent="1" source="sNzU4l0RxBE-IgcGBJiX-9" target="sNzU4l0RxBE-IgcGBJiX-14" edge="1">
          <mxGeometry relative="1" as="geometry" />
        </mxCell>
        <mxCell id="sNzU4l0RxBE-IgcGBJiX-7" value="" style="edgeStyle=orthogonalEdgeStyle;rounded=0;orthogonalLoop=1;jettySize=auto;html=1;" parent="1" source="sNzU4l0RxBE-IgcGBJiX-9" target="sNzU4l0RxBE-IgcGBJiX-45" edge="1">
          <mxGeometry relative="1" as="geometry" />
        </mxCell>
        <mxCell id="sNzU4l0RxBE-IgcGBJiX-8" style="edgeStyle=orthogonalEdgeStyle;rounded=0;orthogonalLoop=1;jettySize=auto;html=1;entryX=1;entryY=0.5;entryDx=0;entryDy=0;" parent="1" source="sNzU4l0RxBE-IgcGBJiX-9" target="sNzU4l0RxBE-IgcGBJiX-48" edge="1">
          <mxGeometry relative="1" as="geometry">
            <Array as="points">
              <mxPoint x="506" y="1047" />
              <mxPoint x="362" y="1047" />
              <mxPoint x="362" y="1007" />
            </Array>
          </mxGeometry>
        </mxCell>
        <mxCell id="sNzU4l0RxBE-IgcGBJiX-9" value="Медицинский&lt;div&gt;специалист&lt;/div&gt;" style="sketch=0;outlineConnect=0;fontColor=#232F3E;gradientColor=none;fillColor=#232F3D;strokeColor=none;dashed=0;verticalLabelPosition=bottom;verticalAlign=top;align=center;html=1;fontSize=12;fontStyle=0;aspect=fixed;pointerEvents=1;shape=mxgraph.aws4.user;" parent="1" vertex="1">
          <mxGeometry x="467" y="1071" width="78" height="78" as="geometry" />
        </mxCell>
        <mxCell id="sNzU4l0RxBE-IgcGBJiX-10" value="" style="edgeStyle=orthogonalEdgeStyle;rounded=0;orthogonalLoop=1;jettySize=auto;html=1;" parent="1" source="sNzU4l0RxBE-IgcGBJiX-11" target="sNzU4l0RxBE-IgcGBJiX-16" edge="1">
          <mxGeometry relative="1" as="geometry" />
        </mxCell>
        <mxCell id="sNzU4l0RxBE-IgcGBJiX-11" value="Пациент" style="sketch=0;outlineConnect=0;fontColor=#232F3E;gradientColor=none;fillColor=#232F3D;strokeColor=none;dashed=0;verticalLabelPosition=bottom;verticalAlign=top;align=center;html=1;fontSize=12;fontStyle=0;aspect=fixed;pointerEvents=1;shape=mxgraph.aws4.user;" parent="1" vertex="1">
          <mxGeometry x="56" y="238" width="78" height="78" as="geometry" />
        </mxCell>
        <mxCell id="sNzU4l0RxBE-IgcGBJiX-12" value="Регистрация файла с данными пациента" style="shape=process;whiteSpace=wrap;html=1;backgroundOutline=1;fillColor=#fff2cc;strokeColor=#d6b656;" parent="1" vertex="1">
          <mxGeometry x="236" y="705" width="120" height="60" as="geometry" />
        </mxCell>
        <mxCell id="sNzU4l0RxBE-IgcGBJiX-13" value="Запись пациента к специалисту" style="shape=process;whiteSpace=wrap;html=1;backgroundOutline=1;fillColor=#fff2cc;strokeColor=#d6b656;" parent="1" vertex="1">
          <mxGeometry x="236" y="805" width="120" height="60" as="geometry" />
        </mxCell>
        <mxCell id="sNzU4l0RxBE-IgcGBJiX-14" value="Просмотр и редактирование журнала доктора" style="shape=process;whiteSpace=wrap;html=1;backgroundOutline=1;fillColor=#fff2cc;strokeColor=#d6b656;" parent="1" vertex="1">
          <mxGeometry x="446" y="941" width="120" height="60" as="geometry" />
        </mxCell>
        <mxCell id="sNzU4l0RxBE-IgcGBJiX-15" value="" style="edgeStyle=orthogonalEdgeStyle;rounded=0;orthogonalLoop=1;jettySize=auto;html=1;" parent="1" source="sNzU4l0RxBE-IgcGBJiX-16" target="sNzU4l0RxBE-IgcGBJiX-31" edge="1">
          <mxGeometry relative="1" as="geometry" />
        </mxCell>
        <mxCell id="sNzU4l0RxBE-IgcGBJiX-16" value="&lt;div style=&quot;text-align: left;&quot;&gt;&lt;span style=&quot;text-wrap-mode: nowrap; background-color: transparent; color: light-dark(rgb(0, 0, 0), rgb(255, 255, 255));&quot;&gt;Данные пациента:&lt;/span&gt;&lt;/div&gt;&lt;div style=&quot;text-align: left; text-wrap-mode: nowrap;&quot;&gt;- ФИО&lt;/div&gt;&lt;div style=&quot;text-align: left; text-wrap-mode: nowrap;&quot;&gt;- Дата рождения&lt;/div&gt;&lt;div style=&quot;text-align: left; text-wrap-mode: nowrap;&quot;&gt;- Телефон&lt;/div&gt;&lt;div style=&quot;text-align: left; text-wrap-mode: nowrap;&quot;&gt;- Электронная почта&lt;/div&gt;&lt;div style=&quot;text-align: left; text-wrap-mode: nowrap;&quot;&gt;&lt;br&gt;&lt;/div&gt;&lt;div style=&quot;text-align: left; text-wrap-mode: nowrap;&quot;&gt;Расширенные данные пациента:&lt;/div&gt;&lt;div style=&quot;text-align: left; text-wrap-mode: nowrap;&quot;&gt;- Адрес прописки&lt;/div&gt;&lt;div style=&quot;text-align: left; text-wrap-mode: nowrap;&quot;&gt;- Место учебы или работы&lt;/div&gt;&lt;div style=&quot;text-align: left; text-wrap-mode: nowrap;&quot;&gt;- Хронические заболевания&lt;/div&gt;" style="html=1;dashed=0;whiteSpace=wrap;fontSize=9;fillColor=#dae8fc;strokeColor=#6c8ebf;" parent="1" vertex="1">
          <mxGeometry x="20" y="361" width="150" height="124" as="geometry" />
        </mxCell>
        <mxCell id="sNzU4l0RxBE-IgcGBJiX-17" style="edgeStyle=orthogonalEdgeStyle;rounded=0;orthogonalLoop=1;jettySize=auto;html=1;entryX=0;entryY=0.5;entryDx=0;entryDy=0;" parent="1" source="sNzU4l0RxBE-IgcGBJiX-18" target="sNzU4l0RxBE-IgcGBJiX-49" edge="1">
          <mxGeometry relative="1" as="geometry" />
        </mxCell>
        <mxCell id="sNzU4l0RxBE-IgcGBJiX-18" value="Файловый&lt;div&gt;сервер&lt;/div&gt;" style="sketch=0;pointerEvents=1;shadow=0;dashed=0;html=1;strokeColor=none;labelPosition=center;verticalLabelPosition=bottom;verticalAlign=top;align=center;fillColor=#515151;shape=mxgraph.mscae.system_center.distribution_point" parent="1" vertex="1">
          <mxGeometry x="685" y="693" width="70" height="70" as="geometry" />
        </mxCell>
        <mxCell id="sNzU4l0RxBE-IgcGBJiX-19" value="Excel-файл" style="whiteSpace=wrap;html=1;shape=mxgraph.basic.document" parent="1" vertex="1">
          <mxGeometry x="476" y="604.5" width="60" height="71" as="geometry" />
        </mxCell>
        <mxCell id="sNzU4l0RxBE-IgcGBJiX-20" value="" style="edgeStyle=orthogonalEdgeStyle;rounded=0;orthogonalLoop=1;jettySize=auto;html=1;" parent="1" source="sNzU4l0RxBE-IgcGBJiX-21" target="sNzU4l0RxBE-IgcGBJiX-19" edge="1">
          <mxGeometry relative="1" as="geometry" />
        </mxCell>
        <mxCell id="sNzU4l0RxBE-IgcGBJiX-21" value="Регистрация пациента в системе" style="shape=process;whiteSpace=wrap;html=1;backgroundOutline=1;fillColor=#fff2cc;strokeColor=#d6b656;" parent="1" vertex="1">
          <mxGeometry x="236" y="610" width="120" height="60" as="geometry" />
        </mxCell>
        <mxCell id="sNzU4l0RxBE-IgcGBJiX-22" style="edgeStyle=orthogonalEdgeStyle;rounded=0;orthogonalLoop=1;jettySize=auto;html=1;exitX=1;exitY=0.5;exitDx=0;exitDy=0;exitPerimeter=0;entryX=0;entryY=0.5;entryDx=0;entryDy=0;entryPerimeter=0;" parent="1" source="sNzU4l0RxBE-IgcGBJiX-19" target="sNzU4l0RxBE-IgcGBJiX-18" edge="1">
          <mxGeometry relative="1" as="geometry">
            <Array as="points">
              <mxPoint x="645" y="640" />
              <mxPoint x="645" y="728" />
            </Array>
          </mxGeometry>
        </mxCell>
        <mxCell id="sNzU4l0RxBE-IgcGBJiX-23" value="Excel-файл" style="whiteSpace=wrap;html=1;shape=mxgraph.basic.document" parent="1" vertex="1">
          <mxGeometry x="476" y="699.5" width="60" height="71" as="geometry" />
        </mxCell>
        <mxCell id="sNzU4l0RxBE-IgcGBJiX-24" value="Excel-файл" style="whiteSpace=wrap;html=1;shape=mxgraph.basic.document" parent="1" vertex="1">
          <mxGeometry x="476" y="799.5" width="60" height="71" as="geometry" />
        </mxCell>
        <mxCell id="sNzU4l0RxBE-IgcGBJiX-25" style="edgeStyle=orthogonalEdgeStyle;rounded=0;orthogonalLoop=1;jettySize=auto;html=1;exitX=1;exitY=0.5;exitDx=0;exitDy=0;entryX=0;entryY=0.5;entryDx=0;entryDy=0;entryPerimeter=0;" parent="1" source="sNzU4l0RxBE-IgcGBJiX-12" target="sNzU4l0RxBE-IgcGBJiX-23" edge="1">
          <mxGeometry relative="1" as="geometry" />
        </mxCell>
        <mxCell id="sNzU4l0RxBE-IgcGBJiX-26" style="edgeStyle=orthogonalEdgeStyle;rounded=0;orthogonalLoop=1;jettySize=auto;html=1;exitX=1;exitY=0.5;exitDx=0;exitDy=0;entryX=0;entryY=0.5;entryDx=0;entryDy=0;entryPerimeter=0;" parent="1" source="sNzU4l0RxBE-IgcGBJiX-13" target="sNzU4l0RxBE-IgcGBJiX-24" edge="1">
          <mxGeometry relative="1" as="geometry" />
        </mxCell>
        <mxCell id="sNzU4l0RxBE-IgcGBJiX-27" style="edgeStyle=orthogonalEdgeStyle;rounded=0;orthogonalLoop=1;jettySize=auto;html=1;exitX=1;exitY=0.5;exitDx=0;exitDy=0;exitPerimeter=0;entryX=0.029;entryY=0.6;entryDx=0;entryDy=0;entryPerimeter=0;" parent="1" source="sNzU4l0RxBE-IgcGBJiX-23" target="sNzU4l0RxBE-IgcGBJiX-18" edge="1">
          <mxGeometry relative="1" as="geometry" />
        </mxCell>
        <mxCell id="sNzU4l0RxBE-IgcGBJiX-28" style="edgeStyle=orthogonalEdgeStyle;rounded=0;orthogonalLoop=1;jettySize=auto;html=1;exitX=1;exitY=0.5;exitDx=0;exitDy=0;exitPerimeter=0;entryX=-0.006;entryY=0.743;entryDx=0;entryDy=0;entryPerimeter=0;" parent="1" source="sNzU4l0RxBE-IgcGBJiX-24" target="sNzU4l0RxBE-IgcGBJiX-18" edge="1">
          <mxGeometry relative="1" as="geometry">
            <Array as="points">
              <mxPoint x="645" y="835" />
              <mxPoint x="645" y="745" />
            </Array>
          </mxGeometry>
        </mxCell>
        <mxCell id="sNzU4l0RxBE-IgcGBJiX-29" style="edgeStyle=orthogonalEdgeStyle;rounded=0;orthogonalLoop=1;jettySize=auto;html=1;exitX=0.5;exitY=0;exitDx=0;exitDy=0;entryX=0.5;entryY=1;entryDx=0;entryDy=0;entryPerimeter=0;" parent="1" source="sNzU4l0RxBE-IgcGBJiX-14" target="sNzU4l0RxBE-IgcGBJiX-24" edge="1">
          <mxGeometry relative="1" as="geometry" />
        </mxCell>
        <mxCell id="sNzU4l0RxBE-IgcGBJiX-30" value="" style="edgeStyle=orthogonalEdgeStyle;rounded=0;orthogonalLoop=1;jettySize=auto;html=1;" parent="1" source="sNzU4l0RxBE-IgcGBJiX-31" target="sNzU4l0RxBE-IgcGBJiX-5" edge="1">
          <mxGeometry relative="1" as="geometry" />
        </mxCell>
        <mxCell id="sNzU4l0RxBE-IgcGBJiX-31" value="Предоставление&lt;div&gt;данных&lt;/div&gt;" style="shape=process;whiteSpace=wrap;html=1;backgroundOutline=1;fillColor=#fff2cc;strokeColor=#d6b656;" parent="1" vertex="1">
          <mxGeometry x="35" y="535" width="120" height="60" as="geometry" />
        </mxCell>
        <mxCell id="sNzU4l0RxBE-IgcGBJiX-32" style="edgeStyle=orthogonalEdgeStyle;rounded=0;orthogonalLoop=1;jettySize=auto;html=1;exitX=0.5;exitY=1;exitDx=0;exitDy=0;entryX=0.5;entryY=0;entryDx=0;entryDy=0;" parent="1" source="sNzU4l0RxBE-IgcGBJiX-33" target="sNzU4l0RxBE-IgcGBJiX-43" edge="1">
          <mxGeometry relative="1" as="geometry" />
        </mxCell>
        <mxCell id="sNzU4l0RxBE-IgcGBJiX-33" value="Передача результатов&lt;div&gt;в клинику&lt;/div&gt;" style="shape=process;whiteSpace=wrap;html=1;backgroundOutline=1;fillColor=#fff2cc;strokeColor=#d6b656;" parent="1" vertex="1">
          <mxGeometry x="446" y="281" width="120" height="60" as="geometry" />
        </mxCell>
        <mxCell id="sNzU4l0RxBE-IgcGBJiX-34" value="Excel-файл" style="whiteSpace=wrap;html=1;shape=mxgraph.basic.document" parent="1" vertex="1">
          <mxGeometry x="681" y="507.5" width="60" height="71" as="geometry" />
        </mxCell>
        <mxCell id="sNzU4l0RxBE-IgcGBJiX-35" style="edgeStyle=orthogonalEdgeStyle;rounded=0;orthogonalLoop=1;jettySize=auto;html=1;exitX=0.5;exitY=1;exitDx=0;exitDy=0;exitPerimeter=0;entryX=0.371;entryY=0.069;entryDx=0;entryDy=0;entryPerimeter=0;" parent="1" source="sNzU4l0RxBE-IgcGBJiX-34" target="sNzU4l0RxBE-IgcGBJiX-18" edge="1">
          <mxGeometry relative="1" as="geometry" />
        </mxCell>
        <mxCell id="sNzU4l0RxBE-IgcGBJiX-36" style="edgeStyle=orthogonalEdgeStyle;rounded=0;orthogonalLoop=1;jettySize=auto;html=1;entryX=0.5;entryY=0;entryDx=0;entryDy=0;" parent="1" source="sNzU4l0RxBE-IgcGBJiX-41" target="sNzU4l0RxBE-IgcGBJiX-33" edge="1">
          <mxGeometry relative="1" as="geometry" />
        </mxCell>
        <mxCell id="sNzU4l0RxBE-IgcGBJiX-37" value="Медицинские лаборатории" style="sketch=0;pointerEvents=1;shadow=0;dashed=0;html=1;strokeColor=none;labelPosition=center;verticalLabelPosition=bottom;verticalAlign=top;align=center;fillColor=#515151;shape=mxgraph.mscae.system_center.admin_console" parent="1" vertex="1">
          <mxGeometry x="452" y="51" width="108" height="77" as="geometry" />
        </mxCell>
        <mxCell id="sNzU4l0RxBE-IgcGBJiX-38" value="Учёт анализов" style="shape=process;whiteSpace=wrap;html=1;backgroundOutline=1;fillColor=#fff2cc;strokeColor=#d6b656;" parent="1" vertex="1">
          <mxGeometry x="446" y="513" width="120" height="60" as="geometry" />
        </mxCell>
        <mxCell id="sNzU4l0RxBE-IgcGBJiX-39" style="edgeStyle=orthogonalEdgeStyle;rounded=0;orthogonalLoop=1;jettySize=auto;html=1;exitX=1;exitY=0.5;exitDx=0;exitDy=0;entryX=0;entryY=0.5;entryDx=0;entryDy=0;entryPerimeter=0;" parent="1" source="sNzU4l0RxBE-IgcGBJiX-38" target="sNzU4l0RxBE-IgcGBJiX-34" edge="1">
          <mxGeometry relative="1" as="geometry" />
        </mxCell>
        <mxCell id="sNzU4l0RxBE-IgcGBJiX-40" value="" style="edgeStyle=orthogonalEdgeStyle;rounded=0;orthogonalLoop=1;jettySize=auto;html=1;entryX=0.5;entryY=0;entryDx=0;entryDy=0;" parent="1" source="sNzU4l0RxBE-IgcGBJiX-37" target="sNzU4l0RxBE-IgcGBJiX-41" edge="1">
          <mxGeometry relative="1" as="geometry">
            <mxPoint x="506" y="171" as="sourcePoint" />
            <mxPoint x="506" y="326" as="targetPoint" />
          </mxGeometry>
        </mxCell>
        <mxCell id="sNzU4l0RxBE-IgcGBJiX-41" value="&lt;div style=&quot;text-align: left;&quot;&gt;&lt;span style=&quot;text-wrap-mode: nowrap; background-color: transparent; color: light-dark(rgb(0, 0, 0), rgb(255, 255, 255));&quot;&gt;Результаты&lt;/span&gt;&lt;/div&gt;&lt;div style=&quot;text-align: left;&quot;&gt;&lt;span style=&quot;text-wrap-mode: nowrap; background-color: transparent; color: light-dark(rgb(0, 0, 0), rgb(255, 255, 255));&quot;&gt;по анализам&lt;/span&gt;&lt;/div&gt;" style="html=1;dashed=0;whiteSpace=wrap;fontSize=9;fillColor=#dae8fc;strokeColor=#6c8ebf;" parent="1" vertex="1">
          <mxGeometry x="456" y="191" width="100" height="40" as="geometry" />
        </mxCell>
        <mxCell id="sNzU4l0RxBE-IgcGBJiX-42" style="edgeStyle=orthogonalEdgeStyle;rounded=0;orthogonalLoop=1;jettySize=auto;html=1;exitX=0.5;exitY=1;exitDx=0;exitDy=0;entryX=0.5;entryY=0;entryDx=0;entryDy=0;" parent="1" source="sNzU4l0RxBE-IgcGBJiX-43" target="sNzU4l0RxBE-IgcGBJiX-38" edge="1">
          <mxGeometry relative="1" as="geometry" />
        </mxCell>
        <mxCell id="sNzU4l0RxBE-IgcGBJiX-43" value="Получение&lt;div&gt;результатов&lt;/div&gt;&lt;div&gt;анализов&lt;/div&gt;" style="shape=process;whiteSpace=wrap;html=1;backgroundOutline=1;fillColor=#fff2cc;strokeColor=#d6b656;" parent="1" vertex="1">
          <mxGeometry x="446" y="393" width="120" height="60" as="geometry" />
        </mxCell>
        <mxCell id="sNzU4l0RxBE-IgcGBJiX-44" style="edgeStyle=orthogonalEdgeStyle;rounded=0;orthogonalLoop=1;jettySize=auto;html=1;exitX=1;exitY=0.5;exitDx=0;exitDy=0;entryX=0;entryY=0.5;entryDx=0;entryDy=0;" parent="1" source="sNzU4l0RxBE-IgcGBJiX-45" target="sNzU4l0RxBE-IgcGBJiX-46" edge="1">
          <mxGeometry relative="1" as="geometry" />
        </mxCell>
        <mxCell id="sNzU4l0RxBE-IgcGBJiX-45" value="&lt;div style=&quot;text-align: left;&quot;&gt;&lt;span style=&quot;text-wrap-mode: nowrap;&quot;&gt;Запрос&lt;/span&gt;&lt;/div&gt;&lt;div style=&quot;text-align: left;&quot;&gt;&lt;span style=&quot;text-wrap-mode: nowrap;&quot;&gt;на проведение&lt;/span&gt;&lt;/div&gt;&lt;div style=&quot;text-align: left;&quot;&gt;&lt;span style=&quot;text-wrap-mode: nowrap;&quot;&gt;анализов&amp;nbsp;&lt;/span&gt;&lt;/div&gt;" style="html=1;dashed=0;whiteSpace=wrap;fontSize=9;fillColor=#dae8fc;strokeColor=#6c8ebf;" parent="1" vertex="1">
          <mxGeometry x="581" y="1090" width="90" height="41" as="geometry" />
        </mxCell>
        <mxCell id="sNzU4l0RxBE-IgcGBJiX-46" value="Передача запроса и анализов" style="shape=process;whiteSpace=wrap;html=1;backgroundOutline=1;fillColor=#fff2cc;strokeColor=#d6b656;" parent="1" vertex="1">
          <mxGeometry x="721" y="1080" width="120" height="60" as="geometry" />
        </mxCell>
        <mxCell id="sNzU4l0RxBE-IgcGBJiX-47" style="edgeStyle=orthogonalEdgeStyle;rounded=0;orthogonalLoop=1;jettySize=auto;html=1;exitX=1;exitY=0.5;exitDx=0;exitDy=0;entryX=0.5;entryY=0;entryDx=0;entryDy=0;entryPerimeter=0;" parent="1" source="sNzU4l0RxBE-IgcGBJiX-46" target="sNzU4l0RxBE-IgcGBJiX-37" edge="1">
          <mxGeometry relative="1" as="geometry" />
        </mxCell>
        <mxCell id="sNzU4l0RxBE-IgcGBJiX-48" value="Keycloack" style="rounded=0;whiteSpace=wrap;html=1;fillColor=#e1d5e7;strokeColor=#9673a6;" parent="1" vertex="1">
          <mxGeometry x="134" y="977" width="120" height="60" as="geometry" />
        </mxCell>
        <mxCell id="sNzU4l0RxBE-IgcGBJiX-49" value="ELK" style="rounded=0;whiteSpace=wrap;html=1;fillColor=#e1d5e7;strokeColor=#9673a6;" parent="1" vertex="1">
          <mxGeometry x="931" y="698" width="120" height="60" as="geometry" />
        </mxCell>
        <mxCell id="sNzU4l0RxBE-IgcGBJiX-50" value="Atlas" style="rounded=0;whiteSpace=wrap;html=1;fillColor=#e1d5e7;strokeColor=#9673a6;" parent="1" vertex="1">
          <mxGeometry x="931" y="797" width="120" height="60" as="geometry" />
        </mxCell>
        <mxCell id="sNzU4l0RxBE-IgcGBJiX-51" value="Veeam" style="rounded=0;whiteSpace=wrap;html=1;fillColor=#e1d5e7;strokeColor=#9673a6;" parent="1" vertex="1">
          <mxGeometry x="748" y="735" width="60" height="30" as="geometry" />
        </mxCell>
        <mxCell id="sNzU4l0RxBE-IgcGBJiX-52" value="Bitlocker/LUKS" style="rounded=0;whiteSpace=wrap;html=1;fillColor=#e1d5e7;strokeColor=#9673a6;" parent="1" vertex="1">
          <mxGeometry x="718" y="687" width="90" height="30" as="geometry" />
        </mxCell>
        <mxCell id="sNzU4l0RxBE-IgcGBJiX-53" value="Бэкап" style="sketch=0;pointerEvents=1;shadow=0;dashed=0;html=1;strokeColor=none;labelPosition=center;verticalLabelPosition=bottom;verticalAlign=top;align=center;fillColor=#515151;shape=mxgraph.mscae.system_center.distribution_point" parent="1" vertex="1">
          <mxGeometry x="685" y="837" width="70" height="70" as="geometry" />
        </mxCell>
        <mxCell id="sNzU4l0RxBE-IgcGBJiX-54" style="edgeStyle=orthogonalEdgeStyle;rounded=0;orthogonalLoop=1;jettySize=auto;html=1;exitX=0.5;exitY=1;exitDx=0;exitDy=0;exitPerimeter=0;entryX=0.49;entryY=0;entryDx=0;entryDy=0;entryPerimeter=0;" parent="1" source="sNzU4l0RxBE-IgcGBJiX-18" target="sNzU4l0RxBE-IgcGBJiX-53" edge="1">
          <mxGeometry relative="1" as="geometry" />
        </mxCell>
        <mxCell id="sNzU4l0RxBE-IgcGBJiX-55" style="edgeStyle=orthogonalEdgeStyle;rounded=0;orthogonalLoop=1;jettySize=auto;html=1;exitX=1;exitY=1;exitDx=0;exitDy=0;exitPerimeter=0;entryX=0.17;entryY=0.064;entryDx=0;entryDy=0;entryPerimeter=0;" parent="1" source="sNzU4l0RxBE-IgcGBJiX-18" target="sNzU4l0RxBE-IgcGBJiX-50" edge="1">
          <mxGeometry relative="1" as="geometry">
            <Array as="points">
              <mxPoint x="755" y="777" />
              <mxPoint x="951" y="777" />
            </Array>
          </mxGeometry>
        </mxCell>
        <mxCell id="sNzU4l0RxBE-IgcGBJiX-56" value="Bitlocker/LUKS" style="rounded=0;whiteSpace=wrap;html=1;fillColor=#e1d5e7;strokeColor=#9673a6;" parent="1" vertex="1">
          <mxGeometry x="741" y="887" width="90" height="30" as="geometry" />
        </mxCell>
        <mxCell id="sNzU4l0RxBE-IgcGBJiX-57" value="Обезличивание&lt;div&gt;данных&lt;/div&gt;" style="rounded=0;whiteSpace=wrap;html=1;fillColor=#f8cecc;strokeColor=#b85450;" parent="1" vertex="1">
          <mxGeometry x="841" y="1131" width="100" height="38" as="geometry" />
        </mxCell>
      </root>
    </mxGraphModel>
  </diagram>
</mxfile>
